Coordinates
version=1
nRows=8
nColumns=40
inDegrees=yes

Units are S.I. units (second, meters, Newtons, ...)
Angles are in degrees.

endheader
time	pelvis_tilt	pelvis_list	pelvis_rotation	pelvis_tx	pelvis_ty	pelvis_tz	hip_flexion_r	hip_adduction_r	hip_rotation_r	knee_angle_r	knee_angle_r_beta	ankle_angle_r	subtalar_angle_r	mtp_angle_r	hip_flexion_l	hip_adduction_l	hip_rotation_l	knee_angle_l	knee_angle_l_beta	ankle_angle_l	subtalar_angle_l	mtp_angle_l	lumbar_extension	lumbar_bending	lumbar_rotation	arm_flex_r	arm_add_r	arm_rot_r	elbow_flex_r	pro_sup_r	wrist_flex_r	wrist_dev_r	arm_flex_l	arm_add_l	arm_rot_l	elbow_flex_l	pro_sup_l	wrist_flex_l	wrist_dev_l
      1.31000000	     -2.95656614	      3.04710328	      4.32019347	     -0.05923037	      0.95435894	     -1.01834780	     27.06031719	    -13.52391984	    -20.57009187	    -29.49298281	     -0.51474966	      2.14455441	     -7.63481240	     13.26028040	      1.31614045	     -6.70968090	     11.68802322	    -11.25165542	     -0.19637843	      6.97252384	      4.07597366	     -4.66610334	     -4.41232707	     -3.12008223	     -5.61014788	      0.24203874	     -9.31424657	    -20.76778237	     21.72620066	     89.95437384	      0.00000000	      0.00000000	     11.53083092	     11.64631514	     -0.90271124	     26.97110627	     89.95437384	      0.00000000	      0.00000000
      1.32000000	     -2.57975228	      2.73217804	      4.55184356	     -0.05210687	      0.95436491	     -1.01845384	     26.67585136	    -12.93523224	    -21.05131753	    -27.16360512	     -0.47409435	      1.78234387	     -6.40453175	     11.05743693	      0.50301766	     -6.16305782	     12.32413563	    -11.31415780	     -0.19746931	      6.28450080	      3.10287882	     -9.01074021	     -4.91927101	     -2.73903238	     -5.79143803	      0.27086128	     -9.23943898	    -21.04277206	     21.77357287	     89.95437384	      0.00000000	      0.00000000	     12.05645574	     11.57980616	     -1.04881398	     27.74988926	     89.95437384	      0.00000000	      0.00000000
      1.33000000	     -2.86268655	      2.86619459	      4.68868220	     -0.04552756	      0.95319668	     -1.01864348	     27.28683912	    -12.80540756	    -20.82676796	    -25.21244908	     -0.44004025	      1.74467265	     -5.38027030	     10.93589705	      0.38788310	     -6.31083595	     12.14444344	    -11.41281309	     -0.19919117	      6.59557841	      3.08317437	     -9.08230711	     -4.69795536	     -2.91632358	     -5.84318523	      0.23792117	     -9.19978344	    -20.94578699	     21.72120259	     89.95437384	      0.00000000	      0.00000000	     12.49567463	     11.56925312	     -1.16356223	     28.53050404	     89.95437384	      0.00000000	      0.00000000
      1.34000000	     -2.75602710	      2.70174467	      4.88676545	     -0.03847867	      0.95267730	     -1.01880074	     27.25482054	    -12.41875648	    -21.16755599	    -23.14146968	     -0.40389484	      1.74859287	     -3.71541077	     10.56200532	     -0.16094840	     -6.07710770	     12.00300086	    -11.52580133	     -0.20116318	      6.97963090	      3.26658131	     -9.39216848	     -4.88348071	     -2.70515748	     -5.97165273	      0.33807980	     -9.19031758	    -20.95700583	     21.47257779	     89.95437384	      0.00000000	      0.00000000	     12.90373872	     11.48926499	     -1.21126623	     29.30957762	     89.95437384	      0.00000000	      0.00000000
      1.35000000	     -2.96075745	      2.76134215	      5.05855330	     -0.03162357	      0.95153166	     -1.01898776	     27.71283207	    -12.26969241	    -21.15582287	    -21.33379004	     -0.37234488	      1.74840078	     -2.42115722	     10.33290144	     -0.37904509	     -6.12656116	     11.79708644	    -11.60610305	     -0.20256471	      7.20702720	      3.15906893	     -9.54050989	     -4.72804888	     -2.77188169	     -6.10014478	      0.34802867	     -9.14552384	    -20.95173780	     21.34939726	     89.95437384	      0.00000000	      0.00000000	     13.22442253	     11.43764129	     -1.19993172	     30.08620928	     89.95437384	      0.00000000	      0.00000000
      1.36000000	     -2.84414956	      2.62194224	      5.41490115	     -0.02457763	      0.95097988	     -1.01925662	     27.61384386	    -12.05102948	    -21.87954518	    -19.47272931	     -0.33986324	      1.68756650	     -0.29399546	      9.68796873	     -0.88651415	     -5.88585183	     11.63839151	    -11.80295883	     -0.20600049	      7.51555441	      3.07084776	     -9.96510646	     -4.95348736	     -2.57349851	     -6.35586210	      0.41850239	     -9.13653699	    -20.95843770	     21.20103745	     89.95437384	      0.00000000	      0.00000000	     13.61217702	     11.34278218	     -1.18095756	     30.78333204	     89.95437384	      0.00000000	      0.00000000
      1.37000000	     -2.90425285	      2.59700863	      5.57360800	     -0.01735365	      0.94998994	     -1.01924230	     27.80669192	    -11.85797890	    -22.31087998	    -17.78583083	     -0.31042131	      1.56590356	      1.56813868	      8.92289764	     -1.27968829	     -5.78738343	     11.62268577	    -11.88139871	     -0.20736953	      7.74391572	      2.98064489	    -10.41625182	     -4.93073203	     -2.53048220	     -6.42901682	      0.41619240	     -9.08635620	    -21.18481644	     21.07755616	     89.95437384	      0.00000000	      0.00000000	     13.86281862	     11.29987434	     -1.28295168	     31.53165292	     89.95437384	      0.00000000	      0.00000000
      1.38000000	     -3.15881753	      2.70866084	      5.70281389	     -0.01020682	      0.94867975	     -1.01915200	     28.24384255	    -11.73500932	    -22.25325465	    -16.22680681	     -0.28321121	      1.40028923	      2.62569891	      8.77273392	     -1.47935678	     -5.87964396	     11.52074829	    -11.94815608	     -0.20853466	      7.98738488	      2.89445688	    -10.54266397	     -4.71658785	     -2.65839661	     -6.43741600	      0.37340156	     -9.06511333	    -21.10417010	     20.90815795	     89.95437384	      0.00000000	      0.00000000	     14.09619931	     11.22254446	     -1.31401015	     32.19138466	     89.95437384	      0.00000000	      0.00000000
